# xmcd
#
# Track frame offsets: 
#        150
#        15917
#        30550
#        52442
#        66772
#        84693
#        98461
#        116236
#        135572
#        150979
#        169279
#        186914
#        203225
#        218808
#        233505
#        244149
#        262476
#        278306
#        294356
#        310838
#        327194
#
# Disc length: 4647 seconds
#
# Revision: 1
# Processed by: cddbd v1.5PL3 Copyright (c) Steve Scherf et al.
# Submitted via: ExactAudioCopy v0.95a5
#
DISCID=28122515
DTITLE=Various Artist - COME FLY WITH US
DYEAR=1900
DGENRE=
TTITLE0=NEAL CASAL - Willow Jane
TTITLE1=JONNY KAPLAN - Ballad Of A Lonesome Yankee
TTITLE2=LARRY BARRETT - The Big Slowdown
TTITLE3=KENNY ROBY - Book Of Time
TTITLE4=LOU FORD - How Does It Feel?
TTITLE5=MICHAEL WESTON-KING - Lay Me Down
TTITLE6=NADINE - Closer
TTITLE7=WAGON - Still Amazed
TTITLE8=NIKKI SUDDEN - Miss You So
TTITLE9=RAMSAY MIDWOOD - Mohawk River
TTITLE10=TERRY LEE HALE - Old Hand
TTITLE11=THE WALKABOUTS - Drown (Single Edit)
TTITLE12=KNIFE IN THE WATER - Sent You Up
TTITLE13=16 HORSEPOWER - Praying Arm Lane
TTITLE14=RAINER - Rude World
TTITLE15=MIDNIGHT CHOIR - Mercy Of Maria (Single Edit)
TTITLE16=DAKOTA SUITE - Elegy For A Funeral (departure)
TTITLE17=SUNSHINE CLUB - Happy Song
TTITLE18=HUGO RACE and TRUE SPIRIT - Lousie's Hands
TTITLE19=TIM GIBBONS - Barrio Showdown
TTITLE20=BUDDY and THE HUDDLE - Can Your Heart Stand
EXTD=
EXTT0=
EXTT1=
EXTT2=
EXTT3=
EXTT4=
EXTT5=
EXTT6=
EXTT7=
EXTT8=
EXTT9=
EXTT10=
EXTT11=
EXTT12=
EXTT13=
EXTT14=
EXTT15=
EXTT16=
EXTT17=
EXTT18=
EXTT19=
EXTT20=
PLAYORDER=
